<mxfile host="app.diagrams.net" modified="2024-08-03T06:33:25.887Z" agent="Mozilla/5.0 (Windows NT 10.0; Win64; x64) AppleWebKit/537.36 (KHTML, like Gecko) Chrome/127.0.0.0 Safari/537.36 Edg/127.0.0.0" etag="lIDndCyHXYLPdxVR8oaF" version="23.1.2" type="github">
  <diagram name="Page-1" id="hwu67iadcXdbJVJVGpBm">
    <mxGraphModel dx="868" dy="451" grid="1" gridSize="10" guides="1" tooltips="1" connect="1" arrows="1" fold="1" page="1" pageScale="1" pageWidth="850" pageHeight="1100" math="0" shadow="0">
      <root>
        <mxCell id="0" />
        <mxCell id="1" parent="0" />
        <mxCell id="Tw6Qxcn_vhuxkHp2IqC7-1" value="" style="shape=cylinder3;whiteSpace=wrap;html=1;boundedLbl=1;backgroundOutline=1;size=15;" vertex="1" parent="1">
          <mxGeometry x="320" y="420" width="130" height="100" as="geometry" />
        </mxCell>
        <mxCell id="Tw6Qxcn_vhuxkHp2IqC7-2" value="" style="rounded=1;whiteSpace=wrap;html=1;" vertex="1" parent="1">
          <mxGeometry x="312.5" y="280" width="145" height="100" as="geometry" />
        </mxCell>
        <mxCell id="Tw6Qxcn_vhuxkHp2IqC7-3" value="" style="rounded=0;whiteSpace=wrap;html=1;" vertex="1" parent="1">
          <mxGeometry x="325" y="300" width="120" height="60" as="geometry" />
        </mxCell>
        <mxCell id="Tw6Qxcn_vhuxkHp2IqC7-4" value="" style="rounded=0;whiteSpace=wrap;html=1;" vertex="1" parent="1">
          <mxGeometry x="325" y="160" width="120" height="60" as="geometry" />
        </mxCell>
        <mxCell id="Tw6Qxcn_vhuxkHp2IqC7-5" value="" style="rounded=1;whiteSpace=wrap;html=1;" vertex="1" parent="1">
          <mxGeometry x="312.5" y="140" width="145" height="100" as="geometry" />
        </mxCell>
        <mxCell id="Tw6Qxcn_vhuxkHp2IqC7-6" value="Rust" style="text;html=1;strokeColor=none;fillColor=none;align=center;verticalAlign=middle;whiteSpace=wrap;rounded=0;" vertex="1" parent="1">
          <mxGeometry x="355" y="315" width="60" height="30" as="geometry" />
        </mxCell>
        <mxCell id="Tw6Qxcn_vhuxkHp2IqC7-7" value="Database" style="text;html=1;strokeColor=none;fillColor=none;align=center;verticalAlign=middle;whiteSpace=wrap;rounded=0;" vertex="1" parent="1">
          <mxGeometry x="355" y="470" width="60" height="30" as="geometry" />
        </mxCell>
        <mxCell id="Tw6Qxcn_vhuxkHp2IqC7-8" value="Database" style="text;html=1;strokeColor=none;fillColor=none;align=center;verticalAlign=middle;whiteSpace=wrap;rounded=0;" vertex="1" parent="1">
          <mxGeometry x="355" y="175" width="60" height="30" as="geometry" />
        </mxCell>
        <mxCell id="Tw6Qxcn_vhuxkHp2IqC7-9" value="" style="rounded=0;whiteSpace=wrap;html=1;" vertex="1" parent="1">
          <mxGeometry x="325" y="160" width="120" height="60" as="geometry" />
        </mxCell>
        <mxCell id="Tw6Qxcn_vhuxkHp2IqC7-10" value="HTML, CSS, JavaScript" style="text;html=1;strokeColor=none;fillColor=none;align=center;verticalAlign=middle;whiteSpace=wrap;rounded=0;" vertex="1" parent="1">
          <mxGeometry x="355" y="175" width="60" height="30" as="geometry" />
        </mxCell>
        <mxCell id="Tw6Qxcn_vhuxkHp2IqC7-13" value="" style="endArrow=none;html=1;rounded=0;" edge="1" parent="1">
          <mxGeometry width="50" height="50" relative="1" as="geometry">
            <mxPoint x="480" y="290" as="sourcePoint" />
            <mxPoint x="480" y="170" as="targetPoint" />
            <Array as="points">
              <mxPoint x="720" y="290" />
              <mxPoint x="720" y="170" />
            </Array>
          </mxGeometry>
        </mxCell>
        <mxCell id="Tw6Qxcn_vhuxkHp2IqC7-14" value="" style="endArrow=none;html=1;rounded=0;" edge="1" parent="1">
          <mxGeometry width="50" height="50" relative="1" as="geometry">
            <mxPoint x="470" y="480" as="sourcePoint" />
            <mxPoint x="480" y="320" as="targetPoint" />
            <Array as="points">
              <mxPoint x="720" y="480" />
              <mxPoint x="720" y="320" />
            </Array>
          </mxGeometry>
        </mxCell>
        <mxCell id="Tw6Qxcn_vhuxkHp2IqC7-16" value="" style="endArrow=classic;startArrow=classic;html=1;rounded=0;entryX=0.5;entryY=1;entryDx=0;entryDy=0;" edge="1" parent="1" source="Tw6Qxcn_vhuxkHp2IqC7-2" target="Tw6Qxcn_vhuxkHp2IqC7-5">
          <mxGeometry width="50" height="50" relative="1" as="geometry">
            <mxPoint x="400" y="310" as="sourcePoint" />
            <mxPoint x="450" y="260" as="targetPoint" />
          </mxGeometry>
        </mxCell>
        <mxCell id="Tw6Qxcn_vhuxkHp2IqC7-17" value="" style="endArrow=classic;startArrow=classic;html=1;rounded=0;exitX=0.5;exitY=0;exitDx=0;exitDy=0;exitPerimeter=0;entryX=0.5;entryY=1;entryDx=0;entryDy=0;" edge="1" parent="1" source="Tw6Qxcn_vhuxkHp2IqC7-1" target="Tw6Qxcn_vhuxkHp2IqC7-2">
          <mxGeometry width="50" height="50" relative="1" as="geometry">
            <mxPoint x="390" y="410" as="sourcePoint" />
            <mxPoint x="385" y="390" as="targetPoint" />
          </mxGeometry>
        </mxCell>
        <mxCell id="Tw6Qxcn_vhuxkHp2IqC7-19" value="Client" style="text;html=1;strokeColor=none;fillColor=none;align=center;verticalAlign=middle;whiteSpace=wrap;rounded=0;" vertex="1" parent="1">
          <mxGeometry x="560" y="210" width="60" height="30" as="geometry" />
        </mxCell>
        <mxCell id="Tw6Qxcn_vhuxkHp2IqC7-20" value="Server" style="text;html=1;strokeColor=none;fillColor=none;align=center;verticalAlign=middle;whiteSpace=wrap;rounded=0;" vertex="1" parent="1">
          <mxGeometry x="560" y="390" width="60" height="30" as="geometry" />
        </mxCell>
      </root>
    </mxGraphModel>
  </diagram>
</mxfile>
